<svg id="Layer_1" height="512" viewBox="0 0 512 512" width="512" xmlns="http://www.w3.org/2000/svg" xmlns:xlink="http://www.w3.org/1999/xlink" data-name="Layer 1"><linearGradient id="linear-gradient" gradientUnits="userSpaceOnUse" x1="186.516" x2="566.38" y1="161.751" y2="541.615"><stop offset="0" stop-color="#1d1d1b"/><stop offset=".369" stop-color="#1d1d1b" stop-opacity=".856"/><stop offset=".75" stop-color="#1d1d1b" stop-opacity=".429"/><stop offset="1" stop-color="#1d1d1b" stop-opacity="0"/></linearGradient><circle cx="256" cy="256" fill="#1877f2" r="250"/><path d="m483.689 359.371a22.7 22.7 0 0 1 3.035-6.966 249.219 249.219 0 0 0 19.276-96.405c0-1.789-.03-3.57-.068-5.35l-161.921-161.921a426.8 426.8 0 0 0 -46.539-2.379c-46.054 0-77.573 28.1-77.573 79.729v44.521h-51.91v60.5l51.911 51.9v102.65l77 77a250.317 250.317 0 0 0 186.789-143.279z" fill="url(#linear-gradient)" opacity=".49"/><path d="m282.345 425.65v-154.55h52.1l7.806-60.5h-59.906v-38.529c0-17.475 4.851-29.382 29.908-29.382h31.757v-53.961a427.147 427.147 0 0 0 -46.539-2.378c-46.054 0-77.573 28.1-77.573 79.729v44.521h-51.909v60.5h51.911v154.55z" fill="#fff"/></svg>